<svg width="14" height="16" viewBox="0 0 14 16" fill="none" xmlns="http://www.w3.org/2000/svg">
<path fill-rule="evenodd" clip-rule="evenodd" d="M2.97485 2.24016C3.33965 1.11744 4.59565 0.343524 6.30509 0.191364C8.41421 0.00432491 10.203 0.664004 10.8659 1.86944C10.9166 1.96448 10.9992 2.17072 11.0467 2.32609C11.1988 2.80816 11.5001 3.19184 11.9664 3.49632C12.09 3.57872 12.2676 3.7056 12.3628 3.78176L12.5404 3.92128L12.7371 4.58416C13.1969 6.14448 13.2984 6.59168 13.2667 6.93744C13.216 7.5368 12.9115 8.31072 12.6193 8.57984C12.5438 8.65213 12.3882 8.79622 12.264 8.91118L12.2451 8.92864C11.9089 9.23952 11.8708 9.30608 11.7756 9.78176C11.7312 10.007 11.6424 10.3875 11.579 10.6222C11.4459 11.1202 11.4204 11.5008 11.5124 11.5928C11.5601 11.6435 11.5886 11.6435 11.7884 11.6086C12.0865 11.5547 12.2452 11.5834 12.3974 11.7229C12.5846 11.891 12.6766 12.2779 12.6227 12.6554C12.5942 12.852 12.5086 12.9885 11.8584 13.8891C11.1924 14.8122 10.8118 15.2466 10.5676 15.364C10.2283 15.5258 9.95245 15.4211 9.64477 15.012C9.44797 14.7488 9.33709 14.6726 9.15629 14.6758C9.00413 14.679 8.95965 14.7045 8.62349 14.9677C8.24925 15.2627 7.65613 15.659 7.44685 15.7574C7.30093 15.8272 7.22813 15.8398 7.00285 15.8398C6.77437 15.8398 6.70461 15.8272 6.54925 15.7542C6.33661 15.6526 5.75309 15.269 5.43277 15.0152C5.03629 14.7013 4.98877 14.6758 4.83021 14.6758C4.66221 14.6758 4.56701 14.7298 4.44333 14.8947C3.91997 15.5798 3.57437 15.6147 3.03517 15.0374C2.62909 14.6029 1.44621 12.9726 1.38589 12.7698C1.34797 12.6365 1.35101 12.259 1.39229 12.0814C1.43981 11.8658 1.56029 11.704 1.72845 11.631C1.87757 11.5677 1.93789 11.5645 2.30573 11.6248C2.41997 11.6438 2.45165 11.6374 2.48973 11.5899C2.57213 11.4757 2.54045 11.1301 2.39133 10.5338C2.31197 10.2261 2.22637 9.84224 2.19469 9.68688C2.16605 9.52832 2.12173 9.36336 2.09629 9.31584C2.04877 9.21424 1.71581 8.87808 1.42717 8.63072C1.26221 8.488 1.20829 8.412 1.07197 8.1392C0.859487 7.70784 0.754847 7.32416 0.732607 6.92768C0.719807 6.66128 0.729407 6.55344 0.799167 6.24576C0.887967 5.84928 1.08781 5.13568 1.31293 4.3904L1.45885 3.91472L1.62381 3.78464C1.71261 3.71488 1.91869 3.56592 2.08365 3.45168C2.55613 3.13136 2.78781 2.81424 2.97485 2.24016ZM5.99437 4.584C6.00077 4.0544 5.69933 3.788 5.01117 3.70864C4.85885 3.6928 4.70029 3.68016 4.65597 3.68032C3.95501 3.71824 3.09869 3.90544 2.81325 4.08304C2.12493 4.52064 1.75389 6.12864 2.09325 7.22288C2.22317 7.65424 2.39133 7.80016 2.76877 7.82544C3.32701 7.86032 4.05965 7.47024 4.77645 6.75024C5.51229 6.0144 5.98477 5.17072 5.99437 4.584ZM11.1513 4.0576C10.9769 3.95936 10.3742 3.80081 9.95245 3.74368C8.39837 3.53104 7.73869 3.99408 8.08749 5.05024C8.39197 5.97952 9.38157 7.10224 10.3267 7.58752C10.6883 7.77472 10.9483 7.84128 11.2401 7.82544C11.5256 7.8064 11.6492 7.73664 11.7793 7.52096C11.9062 7.31168 11.9696 7.05472 12.014 6.59808C12.1123 5.54192 11.719 4.38432 11.1513 4.0576ZM9.80029 10.0773C9.46717 9.21456 8.69021 8.5232 7.77677 8.27264C7.41517 8.17424 6.73645 8.1584 6.36861 8.24096C5.26173 8.48512 4.39901 9.30016 4.08509 10.404C3.98045 10.7592 3.96461 11.403 4.04701 11.7963C4.38333 13.417 5.98493 14.4794 7.58973 14.1464C9.44509 13.7627 10.4884 11.8406 9.80029 10.0773ZM4.71613 12.3259C3.94237 10.7908 4.91597 8.91946 6.62221 8.65946C6.90141 8.61818 7.35501 8.64362 7.64989 8.71978C8.33165 8.89418 8.95021 9.3953 9.27053 10.0359C9.47357 10.4387 9.54653 10.7431 9.54333 11.1935C9.54333 11.923 9.28013 12.5415 8.75997 13.0363C8.25245 13.5151 7.69421 13.7372 7.00285 13.7372C6.01645 13.7372 5.15693 13.2076 4.71613 12.3259ZM7.50093 9.68074C7.51677 9.47466 7.41837 9.3001 7.22493 9.20186C7.14877 9.16378 7.04733 9.1321 7.00301 9.1321C6.88893 9.1321 6.65421 9.25898 6.58125 9.36042C6.48285 9.49354 6.47341 9.73466 6.55901 9.88682C6.80317 10.3214 7.45965 10.1787 7.50093 9.68074ZM7.60541 11.1937C7.60541 11.0414 7.48813 10.8193 7.34221 10.7052C7.18045 10.5751 6.92365 10.5561 6.72365 10.6579C6.39053 10.8259 6.29549 11.2889 6.53645 11.5649C6.84413 11.9137 7.35485 11.8471 7.54509 11.4316C7.57693 11.3617 7.60541 11.254 7.60541 11.1937ZM5.88957 10.9398C5.85165 10.8732 5.76909 10.7908 5.70253 10.7527C5.49325 10.6355 5.21405 10.683 5.07453 10.8574C4.86205 11.1302 4.93485 11.4884 5.22989 11.6407C5.67069 11.8659 6.13373 11.3743 5.88957 10.9398ZM9.05181 11.2635C9.08029 11.1143 8.98829 10.8923 8.85197 10.7908C8.69021 10.6671 8.45869 10.6575 8.28429 10.7623C7.87837 11.0097 8.02733 11.6377 8.49997 11.6916C8.76013 11.7201 9.00109 11.5363 9.05181 11.2635ZM7.44061 12.9697C7.56749 12.7223 7.50077 12.4782 7.25661 12.31C7.18365 12.2623 7.10749 12.2403 7.00621 12.2403C6.69213 12.2435 6.47341 12.4782 6.50189 12.7827C6.51149 12.8715 6.54637 12.9823 6.58125 13.0268C6.65421 13.1283 6.88877 13.2551 7.00301 13.2551C7.15837 13.2551 7.36125 13.122 7.44061 12.9697Z" fill="currentColor"></path>
</svg>