<?xml version="1.0" encoding="utf-8"?>
<svg xmlns="http://www.w3.org/2000/svg" width="349px" height="422px" viewBox="0 0 349 422">
  <defs>
    <filter filterUnits="userSpaceOnUse" color-interpolation-filters="sRGB" id="filter_1">
      <feFlood flood-opacity="0" result="BackgroundImageFix"/>
      <feColorMatrix in="SourceAlpha" type="matrix" values="0 0 0 0 0 0 0 0 0 0 0 0 0 0 0 0 0 0 127 0"/>
      <feOffset dx="0" dy="9"/>
      <feGaussianBlur stdDeviation="9"/>
      <feColorMatrix type="matrix" values="0 0 0 0 0 0 0 0 0 0 0 0 0 0 0 0 0 0 0.2 0"/>
      <feBlend mode="normal" in2="BackgroundImageFix" result="effect0_dropShadow"/>
      <feBlend mode="normal" in="SourceGraphic" in2="effect0_dropShadow" result="shape"/>
      <feColorMatrix in="SourceAlpha" type="matrix" values="0 0 0 0 0 0 0 0 0 0 0 0 0 0 0 0 0 0 127 0" result="hardAlpha"/>
      <feOffset dx="0" dy="1"/>
      <feGaussianBlur stdDeviation="0"/>
      <feComposite in2="hardAlpha" operator="arithmetic" k2="-1" k3="1"/>
      <feColorMatrix type="matrix" values="0 0 0 0 1 0 0 0 0 1 0 0 0 0 1 0 0 0 0.03921569 0"/>
      <feBlend mode="normal" in2="shape" result="effect1_innerShadow"/>
    </filter>
  </defs>
  <g filter="url(#filter_1)">
    <path d="M172.181 0L119.819 0Q119.579 0 119.339 0.00919677Q119.099 0.0183935 118.859 0.0367736Q118.62 0.0551536 118.381 0.08269Q118.142 0.110226 117.905 0.146879Q117.667 0.183531 117.431 0.229246Q117.196 0.27496 116.962 0.32967Q116.728 0.38438 116.496 0.448005Q116.264 0.51163 116.035 0.584077Q115.806 0.656523 115.58 0.737686Q115.354 0.818848 115.131 0.908607Q114.908 0.998366 114.689 1.09659Q114.47 1.19481 114.254 1.30136Q114.039 1.4079 113.828 1.52261Q113.617 1.63732 113.41 1.76003Q113.204 1.88274 113.002 2.01326Q112.8 2.14378 112.604 2.28193Q112.407 2.42008 112.216 2.56565Q112.025 2.71122 111.84 2.86401Q111.654 3.01679 111.475 3.17656Q111.295 3.33632 111.122 3.50284Q110.949 3.66936 110.782 3.84239Q110.616 4.01541 110.456 4.19469Q110.296 4.37397 110.143 4.55924Q109.99 4.74451 109.844 4.9355Q109.698 5.1265 109.56 5.32292Q109.422 5.51935 109.291 5.72094Q109.16 5.92252 109.037 6.12895Q108.914 6.33539 108.799 6.54638Q108.684 6.75737 108.578 6.97261Q108.471 7.18784 108.373 7.40701Q108.274 7.62617 108.184 7.84894Q108.094 8.07171 108.013 8.29776L103.53 20.7497Q103.159 21.7812 102.972 22.8615Q102.785 23.9417 102.788 25.038L8.50733 57.1063Q8.27659 57.1848 8.04907 57.2722Q7.82155 57.3596 7.59759 57.4558Q7.37364 57.5519 7.15358 57.6567Q6.93353 57.7615 6.71771 57.8747Q6.5019 57.9879 6.29064 58.1095Q6.07938 58.231 5.873 58.3607Q5.66663 58.4903 5.46544 58.6279Q5.26425 58.7655 5.06855 58.9107Q4.87286 59.056 4.68295 59.2088Q4.49305 59.3615 4.30922 59.5216Q4.12539 59.6816 3.94791 59.8486Q3.77043 60.0157 3.59958 60.1895Q3.42872 60.3633 3.26474 60.5436Q3.10076 60.7239 2.94391 60.9105Q2.78706 61.097 2.63756 61.2895Q2.48807 61.482 2.34617 61.6802Q2.20427 61.8783 2.07017 62.0818Q1.93606 62.2853 1.80997 62.4939Q1.68387 62.7025 1.56597 62.9158Q1.44806 63.1291 1.33853 63.3468Q1.229 63.5645 1.12801 63.7864Q1.02701 64.0082 0.934707 64.2337Q0.842403 64.4593 0.758928 64.6883Q0.675453 64.9173 0.600932 65.1493Q0.526412 65.3814 0.460958 65.6161Q0.395505 65.8509 0.339218 66.0881Q0.282931 66.3252 0.235894 66.5643Q0.188858 66.8035 0.151143 67.0443Q0.113429 67.285 0.085093 67.5271Q0.0567572 67.7692 0.0378429 68.0122Q0.0189286 68.2552 0.00946429 68.4987Q0 68.7422 0 68.986L0 273.025Q0 273.423 0.0252217 273.82Q0.0504435 274.218 0.100786 274.612Q0.151128 275.007 0.226388 275.398Q0.301648 275.789 0.401523 276.174Q0.501399 276.559 0.625488 276.938Q0.749578 277.316 0.897382 277.685Q1.04519 278.055 1.21611 278.414Q1.38704 278.774 1.5804 279.122Q1.77376 279.469 1.98877 279.804Q2.20379 280.139 2.4396 280.46Q2.6754 280.78 2.93106 281.086Q3.18671 281.391 3.46118 281.679Q3.73564 281.967 4.02782 282.237Q4.32001 282.507 4.62873 282.759Q4.93745 283.01 5.26146 283.241Q5.58548 283.472 5.92349 283.682L134.705 363.736Q135.077 363.967 135.456 364.185Q135.836 364.402 136.222 364.607Q136.609 364.811 137.002 365.002Q137.396 365.193 137.796 365.37Q138.196 365.547 138.602 365.71Q139.008 365.873 139.419 366.022Q139.831 366.171 140.247 366.305Q140.663 366.44 141.084 366.559Q141.505 366.679 141.929 366.784Q142.354 366.889 142.782 366.979Q143.21 367.069 143.641 367.145Q144.072 367.22 144.505 367.28Q144.938 367.34 145.373 367.385Q145.809 367.43 146.245 367.46Q146.681 367.49 147.119 367.504Q147.556 367.519 147.993 367.518Q148.431 367.518 148.868 367.502Q149.305 367.486 149.741 367.455Q150.178 367.423 150.612 367.377Q151.047 367.331 151.481 367.269Q151.914 367.208 152.344 367.131Q152.775 367.055 153.203 366.963Q153.631 366.872 154.055 366.766Q154.479 366.659 154.9 366.538Q155.32 366.417 155.736 366.282Q156.152 366.146 156.563 365.996Q156.973 365.846 157.379 365.682Q157.784 365.517 158.184 365.339Q158.583 365.161 158.976 364.969Q159.369 364.777 159.755 364.571Q160.141 364.365 160.52 364.146Q160.899 363.927 161.269 363.695L289.109 283.687Q289.445 283.476 289.768 283.245Q290.09 283.014 290.397 282.763Q290.704 282.511 290.995 282.241Q291.286 281.971 291.559 281.683Q291.831 281.395 292.086 281.09Q292.34 280.786 292.574 280.466Q292.809 280.145 293.023 279.811Q293.237 279.477 293.429 279.13Q293.621 278.783 293.791 278.424Q293.961 278.066 294.108 277.697Q294.255 277.328 294.378 276.951Q294.502 276.574 294.601 276.19Q294.7 275.806 294.775 275.416Q294.85 275.026 294.9 274.633Q294.95 274.239 294.975 273.843Q295 273.447 295 273.05L295 69.0056Q295 68.7614 294.991 68.5175Q294.981 68.2735 294.962 68.0302Q294.943 67.7868 294.915 67.5443Q294.886 67.3018 294.848 67.0607Q294.811 66.8195 294.763 66.58Q294.716 66.3404 294.66 66.1029Q294.603 65.8654 294.538 65.6303Q294.472 65.3951 294.397 65.1628Q294.322 64.9304 294.239 64.701Q294.155 64.4717 294.062 64.2458Q293.97 64.02 293.868 63.7979Q293.767 63.5757 293.657 63.3577Q293.547 63.1397 293.429 62.9262Q293.311 62.7126 293.184 62.5038Q293.058 62.295 292.923 62.0913Q292.789 61.8876 292.646 61.6892Q292.504 61.4909 292.354 61.2982Q292.204 61.1056 292.047 60.9189Q291.889 60.7323 291.725 60.5518Q291.56 60.3714 291.389 60.1976Q291.218 60.0237 291.04 59.8566Q290.862 59.6895 290.677 59.5295Q290.493 59.3695 290.303 59.2167Q290.112 59.064 289.916 58.9188Q289.72 58.7736 289.518 58.6361Q289.316 58.4986 289.109 58.3691Q288.902 58.2396 288.69 58.1182Q288.479 57.9968 288.262 57.8838Q288.046 57.7708 287.825 57.6662Q287.605 57.5617 287.38 57.4658Q287.156 57.3699 286.927 57.2828Q286.699 57.1958 286.468 57.1176L189.189 24.2532Q189.082 22.4497 188.47 20.7497L183.987 8.29776Q183.906 8.07171 183.816 7.84894Q183.726 7.62617 183.627 7.40701Q183.529 7.18784 183.422 6.97261Q183.316 6.75737 183.201 6.54638Q183.086 6.33539 182.963 6.12895Q182.84 5.92252 182.709 5.72093Q182.578 5.51935 182.44 5.32292Q182.302 5.12649 182.156 4.9355Q182.01 4.74451 181.857 4.55924Q181.704 4.37397 181.544 4.19469Q181.384 4.01541 181.218 3.84239Q181.051 3.66936 180.878 3.50284Q180.705 3.33632 180.525 3.17655Q180.346 3.01679 180.16 2.86401Q179.975 2.71122 179.784 2.56565Q179.593 2.42008 179.396 2.28193Q179.2 2.14378 178.998 2.01326Q178.796 1.88274 178.59 1.76003Q178.383 1.63732 178.172 1.52261Q177.961 1.4079 177.746 1.30136Q177.53 1.19481 177.311 1.09659Q177.092 0.998365 176.869 0.908607Q176.646 0.818848 176.42 0.737685Q176.194 0.656523 175.965 0.584077Q175.736 0.51163 175.504 0.448005Q175.272 0.38438 175.038 0.32967Q174.804 0.27496 174.568 0.229246Q174.333 0.183531 174.095 0.146879Q173.858 0.110226 173.619 0.08269Q173.38 0.0551536 173.141 0.0367736Q172.901 0.0183935 172.661 0.00919676Q172.421 0 172.181 0Z" transform="translate(27 18)" id="Combined-Shape" fill="#272C33" fill-rule="evenodd" stroke="none"/>
  </g>
</svg>