<?xml version="1.0" encoding="utf-8"?>
<svg xmlns="http://www.w3.org/2000/svg" width="68" height="67" viewBox="0 0 68 67" fill="none">
<path d="M56.4279 12.2226L34.5275 5.65234C34.2209 5.5603 33.8941 5.5603 33.5873 5.65234L11.6865 12.2226C10.9947 12.4301 10.5208 13.0669 10.5208 13.7893V37.8801C10.5208 41.0135 11.7894 44.2211 14.2911 47.4137C16.2018 49.8521 18.8452 52.3005 22.1478 54.6912C27.6959 58.7073 33.1592 61.171 33.3891 61.2738C33.6016 61.369 33.8295 61.4166 34.0574 61.4166C34.2853 61.4166 34.5133 61.3691 34.7258 61.2738C34.9556 61.171 40.4187 58.7073 45.9668 54.6912C49.2694 52.3005 51.9128 49.8521 53.8235 47.4137C56.3252 44.2212 57.5936 41.0136 57.5936 37.8801V13.7893C57.5936 13.0669 57.12 12.4301 56.4279 12.2226Z" fill="#A6A7AA"/>
</svg>