<?xml version="1.0" encoding="utf-8"?>
<svg xmlns="http://www.w3.org/2000/svg" width="68" height="67" viewBox="0 0 68 67" fill="none">
<path d="M60.6288 24.6984V49.3723C60.6288 54.4798 56.4836 58.625 51.3761 58.625H26.7022C22.7051 58.625 19.3247 56.0589 18.0417 52.5059L32.1552 54.4798C32.4019 54.5044 32.6733 54.5291 32.9201 54.5291C34.1291 54.5291 35.3134 54.1343 36.251 53.4188L52.9553 40.8351C54.1396 39.9468 54.9045 38.6391 55.1266 37.1587L57.5199 20.0597C57.6186 19.3195 57.6186 18.6039 57.594 17.9131C59.4445 19.6155 60.6042 22.0089 60.6042 24.6984H60.6288ZM33.1421 34.0745C33.2161 33.581 33.4629 33.1368 33.8577 32.8654C34.2524 32.5693 34.7459 32.446 35.2394 32.52L51.7216 34.8393L53.8682 19.5662C54.5837 14.5081 51.0554 9.82001 45.9972 9.10447L21.5454 5.6748C19.1027 5.32936 16.66 5.97089 14.686 7.45132C12.7121 8.93175 11.4291 11.1031 11.0837 13.5458L7.65399 37.9729C7.30855 40.4156 7.95007 42.8584 9.43051 44.8323C10.9109 46.8062 13.0822 48.0892 15.525 48.4347L30.7981 50.5813L33.1174 34.0991L33.1421 34.0745ZM50.1424 38.343L36.5471 36.4431L34.6472 50.0385L50.1424 38.3677V38.343Z" fill="#A6A7AA"/>
</svg>